<svg xmlns="http://www.w3.org/2000/svg" viewBox="0 0 600 450">
  <!-- Dialog background -->
  <rect width="600" height="450" fill="#ffffff" stroke="#e0e0e0" stroke-width="1" />
  
  <!-- Dialog title bar -->
  <rect x="0" y="0" width="600" height="30" fill="#3273dc" />
  <text x="10" y="20" font-family="Arial" font-size="14" fill="white">Журнал событий КА 101</text>
  
  <!-- Controls -->
  <rect x="10" y="40" width="580" height="40" fill="#f8fafc" stroke="#e2e8f0" rx="4" />
  
  <text x="20" y="65" font-family="Arial" font-size="12" fill="#4a5568">Фильтр:</text>
  
  <rect x="70" y="45" width="200" height="30" fill="#ffffff" stroke="#cbd5e0" rx="4" />
  <text x="80" y="65" font-family="Arial" font-size="12" fill="#a0aec0">Поиск по тексту...</text>
  
  <rect x="280" y="45" width="20" height="30" fill="#ffffff" stroke="#cbd5e0" />
  <rect x="285" y="60" width="10" height="2" fill="#4a5568" />
  <text x="310" y="65" font-family="Arial" font-size="12" fill="#4a5568">Скрыть ТМИ</text>
  
  <rect x="390" y="45" width="90" height="30" rx="4" fill="#3273dc" stroke="#2251a6" />
  <text x="435" y="65" font-family="Arial" font-size="12" text-anchor="middle" fill="white">Применить</text>
  
  <rect x="490" y="45" width="90" height="30" rx="4" fill="#e53e3e" stroke="#c53030" />
  <text x="535" y="65" font-family="Arial" font-size="12" text-anchor="middle" fill="white">Очистить</text>
  
  <!-- Log content -->
  <rect x="10" y="90" width="580" height="350" fill="#ffffff" stroke="#e2e8f0" />
  
  <!-- Log table header -->
  <rect x="10" y="90" width="580" height="30" fill="#edf2f7" stroke="#e2e8f0" />
  <text x="20" y="110" font-family="Arial" font-size="12" font-weight="bold" fill="#4a5568">Дата/время</text>
  <text x="150" y="110" font-family="Arial" font-size="12" font-weight="bold" fill="#4a5568">Уровень</text>
  <text x="250" y="110" font-family="Arial" font-size="12" font-weight="bold" fill="#4a5568">Категория</text>
  <text x="400" y="110" font-family="Arial" font-size="12" font-weight="bold" fill="#4a5568">Сообщение</text>
  
  <!-- Log entries -->
  <rect x="10" y="120" width="580" height="30" fill="#ffffff" stroke="#e2e8f0" />
  <text x="20" y="140" font-family="Arial" font-size="12" fill="#4a5568">01/04/2025 09:32:15</text>
  <text x="150" y="140" font-family="Arial" font-size="12" fill="#3182ce">INFO</text>
  <text x="250" y="140" font-family="Arial" font-size="12" fill="#4a5568">Мониторинг</text>
  <text x="400" y="140" font-family="Arial" font-size="12" fill="#4a5568">Мониторинг запущен</text>
  
  <rect x="10" y="150" width="580" height="30" fill="#ffffff" stroke="#e2e8f0" />
  <text x="20" y="170" font-family="Arial" font-size="12" fill="#4a5568">01/04/2025 09:32:16</text>
  <text x="150" y="170" font-family="Arial" font-size="12" fill="#3182ce">INFO</text>
  <text x="250" y="170" font-family="Arial" font-size="12" fill="#4a5568">Соед. с СОТМ</text>
  <text x="400" y="170" font-family="Arial" font-size="12" fill="#4a5568">Соединение установлено</text>
  
  <rect x="10" y="180" width="580" height="30" fill="#fffaf0" stroke="#e2e8f0" />
  <text x="20" y="200" font-family="Arial" font-size="12" fill="#4a5568">01/04/2025 09:32:18</text>
  <text x="150" y="200" font-family="Arial" font-size="12" fill="#dd6b20">WARN</text>
  <text x="250" y="200" font-family="Arial" font-size="12" fill="#4a5568">Параметры</text>
  <text x="400" y="200" font-family="Arial" font-size="12" fill="#4a5568">Параметр НОВФР имеет значение 0</text>
  
  <rect x="10" y="210" width="580" height="30" fill="#ffffff" stroke="#e2e8f0" />
  <text x="20" y="230" font-family="Arial" font-size="12" fill="#4a5568">01/04/2025 09:32:23</text>
  <text x="150" y="230" font-family="Arial" font-size="12" fill="#3182ce">INFO</text>
  <text x="250" y="230" font-family="Arial" font-size="12" fill="#4a5568">Телеметрия</text>
  <text x="400" y="230" font-family="Arial" font-size="12" fill="#4a5568">ТМИ в порядке</text>
  
  <rect x="10" y="240" width="580" height="30" fill="#fff5f5" stroke="#e2e8f0" />
  <text x="20" y="260" font-family="Arial" font-size="12" fill="#4a5568">01/04/2025 09:32:30</text>
  <text x="150" y="260" font-family="Arial" font-size="12" fill="#e53e3e">ERROR</text>
  <text x="250" y="260" font-family="Arial" font-size="12" fill="#4a5568">Параметры</text>
  <text x="400" y="260" font-family="Arial" font-size="12" fill="#4a5568">Параметр ТОК_АКБ вне допустимых пределов (0.05)</text>
  
  <rect x="10" y="270" width="580" height="30" fill="#ffffff" stroke="#e2e8f0" />
  <text x="20" y="290" font-family="Arial" font-size="12" fill="#4a5568">01/04/2025 09:32:45</text>
  <text x="150" y="290" font-family="Arial" font-size="12" fill="#3182ce">INFO</text>
  <text x="250" y="290" font-family="Arial" font-size="12" fill="#4a5568">Телеметрия</text>
  <text x="400" y="290" font-family="Arial" font-size="12" fill="#4a5568">СЕК: изменение значения на 32</text>
  
  <!-- Status bar -->
  <rect x="10" y="410" width="580" height="30" fill="#f8fafc" stroke="#e2e8f0" />
  <text x="20" y="430" font-family="Arial" font-size="12" fill="#4a5568">Всего записей: 132 | Отображено: 24 | Файл: LOG_101.txt</text>
</svg>
